<svg xmlns="http://www.w3.org/2000/svg" width="500.207" height="263.342" viewBox="0 0 500.207 263.342"><g transform="translate(0 0.001)"><path d="M510.277,331.725l-47.337,22.4,41.9-31.328a236.427,236.427,0,0,0-22.875-30.1l-205.3,51.028L462.1,272.987a236.386,236.386,0,0,0-26.929-20.526L122.349,302.85A234.445,234.445,0,0,0,71,449.159H541.892A234.319,234.319,0,0,0,510.277,331.725Z" transform="translate(-71.003 -214.185)" fill="#f2f2f2"/><path d="M470.353,195.231a235.608,235.608,0,0,0-284.066,61.062C260.243,240.089,389.007,212.038,470.353,195.231Z" transform="translate(-131.782 -171.5)" fill="#f2f2f2"/><path d="M728.529,663.547c0,7.311-67.948,29.313-151.764,29.313S425,670.858,425,663.547s67.947,2.837,151.764,2.837S728.529,656.236,728.529,663.547Z" transform="translate(-257.635 -429.518)" fill="#3f3d56"/><path d="M728.529,663.547c0,7.311-67.948,29.313-151.764,29.313S425,670.858,425,663.547s67.947,2.837,151.764,2.837S728.529,656.236,728.529,663.547Z" transform="translate(-257.635 -429.518)" opacity="0.1"/><ellipse cx="151.5" cy="13.5" rx="151.5" ry="13.5" transform="translate(167 220.341)" fill="#3f3d56"/><path d="M656.644,436.022s6.1,9.681,3.924,12.3,16.355,2.687,16.355,2.687-2.784-14.083-1.965-17.324Z" transform="translate(-379.761 -309.729)" fill="#a0616a"/><path d="M656.644,436.022s6.1,9.681,3.924,12.3,16.355,2.687,16.355,2.687-2.784-14.083-1.965-17.324Z" transform="translate(-379.761 -309.729)" opacity="0.1"/><circle cx="19.141" cy="19.141" r="19.141" transform="translate(267.498 91.521)" fill="#ca6843"/><path d="M701.494,453.5v11.347l11.347-2.364-.946-8.037Z" transform="translate(-369.837 -239.092)" fill="#a0616a"/><path d="M850.8,629l31.677,5.2-8.037,11.82s-22.221-7.565-27.894-7.565S850.8,629,850.8,629Z" transform="translate(-478.956 -412.701)" fill="#a0616a"/><path d="M699.171,551.944s23.639-27.422,31.2-26,10.874,9.928,10.874,9.928l4.255,42.078s-15.129,1.418-15.129,0-2.837-31.677-2.837-31.677-22.221,49.17-34.041,16.548Z" transform="translate(-399.19 -358.338)" fill="#2f2e41"/><path d="M624.5,601.174s.473,23.639,14.656,25.058,29.786-9.456,29.786-9.456l25.53-12.231s30.258,16.013,39.241,11.758c0,0,9.456-9.928,3.309-12.765s-.473,0-.473,0l-36.4-18.911s-7.092-1.891-19.384,3.31-28.84,7.565-28.84,7.565Z" transform="translate(-362.813 -389.129)" fill="#2f2e41"/><circle cx="14.184" cy="14.184" r="14.184" transform="translate(271.14 102.831)" fill="#a0616a"/><path d="M663.871,475.569l-.946,19.857s.473,26-3.782,27.894c-2.151.955-6.473,2.875-10.468,4.974a38.923,38.923,0,0,0-7.38,4.666,5.3,5.3,0,0,0-1.064,1.234c-1.891,3.31-14.183,2.837-17.02.473s-.946,2.837-3.309,3.782c-2.288.917-5.461-6.581-3.518-17.777.062-.373.132-.752.208-1.135,2.17-10.851-1.239-36.84-.714-46.882a17.661,17.661,0,0,1,.241-2.288c1.418-7.565,19.517-22.959,22.9-16.4,4.17,8.094,13.749.7,15.394-2.983,9.456-.473,12.765,10.874,12.765,10.874Z" transform="translate(-358.217 -318.84)" fill="#3f3d56"/><path d="M781.121,640s-7.565,2.837-9.929,2.364a4.089,4.089,0,0,0-4.728,4.255c0,2.837-2.837,9.456,1.418,9.929s21.748-.473,25.53.946c0,0,17.02.473,15.6-6.619s-8.51-6.619-8.51-6.619S781.121,643.31,781.121,640Z" transform="translate(-437.172 -418.5)" fill="#2f2e41"/><path d="M904.776,639.837S905.722,637,907.14,637s12.765,1.891,14.184,1.418,17.966-1.418,15.129,6.619-12.292,8.983-12.292,8.983-17.02-1.891-19.384-1.418-10.874,0-9.456-2.364S905.722,643.619,904.776,639.837Z" transform="translate(-505.511 -416.918)" fill="#2f2e41"/><path d="M810.958,498.793l2.594,10.7a.668.668,0,0,1-.013.361l-11.766,36.769a.668.668,0,0,1-1.3-.128l-1.628-14.324a.667.667,0,0,1,.029-.282l10.8-33.144a.668.668,0,0,1,1.285.05Z" transform="translate(-454.729 -343.785)" fill="#d0cde1"/><path d="M739.878,329.775l2.395,9.18-10.378,33.527L729.5,362.1Z" transform="translate(-384.602 -173.862)" fill="#f2f2f2"/><path d="M711.779,586.327c.4,1.2,41.509-.4,41.909-.8a8.669,8.669,0,0,0,.878-1.6c.375-.8.718-1.6.718-1.6l-1.6-12.924-40.711-1.445s-1.018,10.952-1.225,15.965A11.985,11.985,0,0,0,711.779,586.327Z" transform="translate(-408.789 -380.523)" fill="#d0cde1"/><path d="M699.388,403.22l.8,11.176H682.225V403.22Z" transform="translate(-359.678 -212.583)" opacity="0.1"/><path d="M657.99,410.794l.107-.021-.506,4.811h-9.979v-4.79Z" transform="translate(-341.43 -216.566)" opacity="0.1"/><path d="M711.779,604.13c.4,1.2,41.509-.4,41.908-.8a8.667,8.667,0,0,0,.878-1.6H711.751a11.981,11.981,0,0,0,.028,2.395Z" transform="translate(-408.789 -398.326)" opacity="0.1"/><path d="M689.575,333.5a10.463,10.463,0,0,1-6.037,4.15c-4.222,1.13-.034,7.474-.034,7.474a3.907,3.907,0,0,1,.674-4.75C686.373,337.932,689.907,336.261,689.575,333.5Z" transform="translate(-392.946 -256.909)" fill="#ca6843"/><circle cx="5.334" cy="5.334" r="5.334" transform="translate(284.475 84.403)" fill="#ca6843"/><path d="M681.313,364.474c-4.349-1.645-11.589-2.479-15.315-1.909l.511-3.731c3.581,1.851,10.789,2.721,15.315,1.909Z" transform="translate(-384.693 -270.266)" fill="#3f3d56"/><path d="M654.072,373.587s-5.45,9.065-18.123,12.459-.1,22.437-.1,22.437-4.571-6.925,2.022-14.259S655.07,381.876,654.072,373.587Z" transform="translate(-365.867 -278.043)" fill="#ca6843"/><path d="M681.357,372.422s5.236,12.451,10.984,13.628,5.312,20.852-3.677,23.8c0,0,6.555-11.534.952-19.269S680.474,376.733,681.357,372.422Z" transform="translate(-392.719 -277.429)" fill="#ca6843"/><path d="M648.722,550.98a47.483,47.483,0,0,0-2.77,5.428c-.156.629-1.886.265-4.61-.761-5.461-2.066-14.926-6.8-23.757-11.531a7.454,7.454,0,0,1-1.154-.756c.061-.374.132-.752.208-1.135,2.17-10.85-1.239-36.84-.714-46.881L619.948,494l8.037,7.565v32.15s20.8,11.347,22.221,12.292C650.93,546.489,649.932,548.687,648.722,550.98Z" transform="translate(-358.264 -341.527)" opacity="0.1"/><path d="M716.667,559.8l12.765,6.619s7.565-8.037,12.292-1.891-13.711,8.037-13.711,8.037-16.075-3.782-16.548-8.983S716.667,559.8,716.667,559.8Z" transform="translate(-408.649 -376.126)" fill="#a0616a"/><path d="M674.151,590.8l7.565,1.891s8.51-10.4,17.493-6.619-11.347,11.347-11.347,11.347-10.874,5.673-15.129.946S674.151,590.8,674.151,590.8Z" transform="translate(-387.409 -389.634)" fill="#a0616a"/><path d="M704.589,465c.473.473,5.673,4.255,5.673,4.255s1.418,17.966-.473,21.748-3.309,3.782-1.891,5.673,3.31.473,1.418,3.782-3.782,2.837-2.364,4.255.946,1.891.946,1.891l5.673,4.728s-3.481,5.544-7.887,5.136-8.188-21.684-8.188-21.684Z" transform="translate(-401.299 -326.238)" fill="#3f3d56"/><path d="M614.7,489l-4.255,1.418s-11.347,41.605,1.891,48.7,27.894,14.184,28.367,12.292,5.673-9.456,4.255-10.4-22.221-12.292-22.221-12.292v-32.15Z" transform="translate(-353.021 -338.891)" fill="#3f3d56"/><path d="M565.94,354l-.946,22.694,25.058,11.82-23.167-11.82Z" transform="translate(-297.873 -186.634)" opacity="0.1"/><path d="M1069.292,628.848c-9.529,5.619-13.28,16.913-13.28,16.913s11.7,2.185,21.228-3.434,13.28-16.913,13.28-16.913S1078.818,623.229,1069.292,628.848Z" transform="translate(-590.313 -410.589)" fill="#3f3d56"/><path d="M1072.076,616.737c-5.336,9.69-16.516,13.771-16.516,13.771s-2.528-11.63,2.808-21.32,16.516-13.771,16.516-13.771S1077.414,607.047,1072.076,616.737Z" transform="translate(-589.76 -394.995)" fill="#6c63ff"/><circle cx="2" cy="2" r="2" transform="translate(8 105.341)" fill="#6c63ff"/><circle cx="2" cy="2" r="2" transform="translate(14 105.341)" fill="#6c63ff"/><ellipse cx="2.5" cy="2" rx="2.5" ry="2" transform="translate(18 105.341)" fill="#6c63ff"/><rect width="27.422" height="2.837" transform="translate(37.347 179.126)" fill="#6c63ff" opacity="0.3"/><rect width="25.939" height="2.837" transform="translate(37.347 185.272)" fill="#6c63ff" opacity="0.3"/><rect width="18.899" height="2.837" transform="translate(37.347 191.418)" fill="#6c63ff" opacity="0.3"/><g transform="translate(101.173 179.126)" opacity="0.3"><rect width="27.422" height="2.837" fill="#6c63ff"/><rect width="25.939" height="2.837" transform="translate(0 6.146)" fill="#6c63ff"/><rect width="18.899" height="2.837" transform="translate(0 12.292)" fill="#6c63ff"/><rect width="27.422" height="2.837" fill="#6c63ff" opacity="0.3"/><rect width="25.939" height="2.837" transform="translate(0 6.146)" fill="#6c63ff" opacity="0.3"/><rect width="18.899" height="2.837" transform="translate(0 12.292)" fill="#6c63ff" opacity="0.3"/></g><rect width="27.422" height="2.837" transform="translate(167.364 179.126)" fill="#6c63ff" opacity="0.3"/><rect width="25.939" height="2.837" transform="translate(167.364 185.272)" fill="#6c63ff" opacity="0.3"/><rect width="18.899" height="2.837" transform="translate(167.364 191.418)" fill="#6c63ff" opacity="0.3"/><rect width="34.986" height="31.204" transform="translate(33.565 142.248)" fill="#6c63ff" opacity="0.3"/><rect width="34.986" height="31.204" transform="translate(97.391 142.248)" fill="#3f3d56"/><rect width="34.986" height="31.204" transform="translate(163.581 142.248)" fill="#3f3d56"/><path d="M303.84,520.368l-.462-.009c.01-.511.3-12.558,5.041-15.888l.265.378C304.134,508.045,303.843,520.246,303.84,520.368Z" transform="translate(-193.515 -347.048)" fill="#6c63ff"/><circle cx="2.308" cy="2.308" r="2.308" transform="translate(115.038 152.656)" fill="#6c63ff"/><path d="M314.082,513.891a7.185,7.185,0,0,1-3.707.16,6.548,6.548,0,0,1,6.732-2.309,7.186,7.186,0,0,1-3.025,2.149Z" transform="translate(-197.203 -350.778)" fill="#6c63ff"/><path d="M443.84,520.368l-.461-.009c.01-.511.3-12.558,5.041-15.888l.265.378C444.134,508.045,443.843,520.246,443.84,520.368Z" transform="translate(-267.325 -347.048)" fill="#6c63ff"/><circle cx="2.308" cy="2.308" r="2.308" transform="translate(181.228 152.656)" fill="#6c63ff"/><path d="M454.082,513.891a7.185,7.185,0,0,1-3.707.16,6.548,6.548,0,0,1,6.732-2.309,7.186,7.186,0,0,1-3.025,2.149Z" transform="translate(-271.013 -350.778)" fill="#6c63ff"/><path d="M303.462,519.462H77V388.5H303.462Zm-225.519-.946H302.516V389.446H77.943Z" transform="translate(-74.163 -285.906)" fill="#2f2e41"/><rect width="225.519" height="0.946" transform="translate(3.307 112.081)" fill="#2f2e41"/></g></svg>