<svg xmlns="http://www.w3.org/2000/svg" width="309.627" height="196.619" viewBox="0 0 309.627 196.619">
  <g id="ilustration-contact" transform="translate(0 0)">
    <path id="Caminho_2" data-name="Caminho 2" d="M254.562,706.194l-.712-2.81A36.488,36.488,0,0,0,249.978,702l-.09,1.306-.365-1.439c-1.631-.466-2.741-.671-2.741-.671a34.971,34.971,0,0,0,4.644,10.06l3.664.644-2.846.41a14.763,14.763,0,0,0,1.273,1.349c4.574,4.246,9.669,6.194,11.38,4.351s-.611-6.779-5.185-11.025a19.435,19.435,0,0,0-4.983-3.2Z" transform="translate(-218.442 -524.692)" fill="#949496"/>
    <path id="Caminho_3" data-name="Caminho 3" d="M281.416,689.253l.843-2.774a36.481,36.481,0,0,0-2.6-3.19l-.752,1.071.431-1.42c-1.156-1.242-2-1.991-2-1.991a34.97,34.97,0,0,0-1.225,11.012l2.8,2.445-2.649-1.12a14.754,14.754,0,0,0,.392,1.813c1.721,6,5.076,10.3,7.493,9.607s2.981-6.119,1.26-12.118a19.435,19.435,0,0,0-2.609-5.318Z" transform="translate(-238.52 -510.803)" fill="#949496"/>
    <path id="Caminho_4" data-name="Caminho 4" d="M439.471,704.677l-.67-2.641a34.292,34.292,0,0,0-3.639-1.305l-.085,1.227-.343-1.352c-1.533-.438-2.577-.631-2.577-.631a32.867,32.867,0,0,0,4.365,9.455l3.444.6-2.675.386a13.878,13.878,0,0,0,1.2,1.268c4.3,3.991,9.088,5.822,10.7,4.09s-.574-6.371-4.874-10.362a18.266,18.266,0,0,0-4.683-3.011Z" transform="translate(-335.278 -523.857)" fill="#949496"/>
    <path id="Caminho_5" data-name="Caminho 5" d="M464.71,688.754l.792-2.607a34.291,34.291,0,0,0-2.44-3l-.707,1.007.406-1.335c-1.086-1.167-1.88-1.872-1.88-1.872a32.869,32.869,0,0,0-1.151,10.35l2.635,2.3-2.49-1.053a13.874,13.874,0,0,0,.369,1.7c1.618,5.639,4.771,9.681,7.042,9.029s2.8-5.751,1.184-11.39a18.267,18.267,0,0,0-2.452-5Z" transform="translate(-353.447 -510.803)" fill="#949496"/>
    <path id="Caminho_6" data-name="Caminho 6" d="M805.777,714.31l-.337-1.331a17.279,17.279,0,0,0-1.834-.658l-.043.619-.173-.681c-.773-.221-1.3-.318-1.3-.318a16.56,16.56,0,0,0,2.2,4.764l1.735.3-1.348.194a6.994,6.994,0,0,0,.6.639c2.167,2.011,4.58,2.934,5.39,2.061s-.289-3.211-2.456-5.222a9.2,9.2,0,0,0-2.36-1.517Z" transform="translate(-575.991 -532.067)" fill="#949496"/>
    <path id="Caminho_7" data-name="Caminho 7" d="M818.529,706.286l.4-1.314a17.309,17.309,0,0,0-1.23-1.511l-.356.507.2-.673c-.547-.588-.947-.943-.947-.943a16.566,16.566,0,0,0-.58,5.215l1.328,1.158-1.255-.53a6.981,6.981,0,0,0,.186.859c.815,2.841,2.4,4.878,3.549,4.55s1.412-2.9.6-5.739a9.2,9.2,0,0,0-1.236-2.519Z" transform="translate(-585.375 -525.489)" fill="#949496"/>
    <path id="Caminho_8" data-name="Caminho 8" d="M895.892,705.35l-.444-1.75a22.725,22.725,0,0,0-2.412-.865l-.056.814-.227-.9c-1.016-.29-1.708-.418-1.708-.418a21.786,21.786,0,0,0,2.893,6.267l2.282.4-1.773.256a9.2,9.2,0,0,0,.793.841c2.85,2.645,6.024,3.859,7.089,2.711s-.381-4.223-3.23-6.868a12.109,12.109,0,0,0-3.1-2Z" transform="translate(-629.272 -525.407)" fill="#949496"/>
    <path id="Caminho_9" data-name="Caminho 9" d="M912.621,694.8l.525-1.728a22.748,22.748,0,0,0-1.617-1.987l-.469.667.269-.885c-.72-.774-1.246-1.241-1.246-1.241a21.787,21.787,0,0,0-.763,6.86l1.747,1.523-1.65-.7a9.212,9.212,0,0,0,.245,1.13c1.072,3.737,3.162,6.417,4.668,5.985s1.857-3.812.785-7.549a12.11,12.11,0,0,0-1.626-3.313Z" transform="translate(-641.78 -516.754)" fill="#949496"/>
    <path id="Caminho_10" data-name="Caminho 10" d="M714.464,668.419l2.016-2.338a38.846,38.846,0,0,0-1.153-4.226l-1.194.719,1.032-1.2c-.59-1.708-1.089-2.8-1.089-2.8a37.239,37.239,0,0,0-5.94,10.195l1.676,3.59-2.1-2.233a15.737,15.737,0,0,0-.4,1.935c-.911,6.584.5,12.218,3.154,12.585s5.541-4.673,6.451-11.257a20.7,20.7,0,0,0-.248-6.3Z" transform="translate(-514.141 -495.451)" fill="#949496"/>
    <path id="Caminho_11" data-name="Caminho 11" d="M724.609,683.976l2.935-.959a38.866,38.866,0,0,0,1.2-4.213l-1.394,0,1.5-.491c.378-1.767.516-2.961.516-2.961a37.24,37.24,0,0,0-10.355,5.657l-.421,3.939-.641-2.995a15.722,15.722,0,0,0-1.342,1.45c-4.183,5.165-5.886,10.719-3.805,12.4s7.159-1.136,11.341-6.3a20.7,20.7,0,0,0,3.046-5.524Z" transform="translate(-516.729 -506.961)" fill="#949496"/>
    <path id="Caminho_12" data-name="Caminho 12" d="M831.788,709.964l.9-1.04a17.261,17.261,0,0,0-.513-1.879l-.531.32.459-.532c-.262-.76-.484-1.246-.484-1.246a16.564,16.564,0,0,0-2.642,4.534l.745,1.6-.932-.993a6.98,6.98,0,0,0-.178.86c-.4,2.928.223,5.434,1.4,5.6s2.464-2.078,2.869-5.006a9.2,9.2,0,0,0-.11-2.8Z" transform="translate(-593.534 -527.708)" fill="#949496"/>
    <path id="Caminho_13" data-name="Caminho 13" d="M836.3,716.883l1.305-.426a17.26,17.26,0,0,0,.533-1.874h-.62l.668-.218c.168-.786.229-1.317.229-1.317a16.564,16.564,0,0,0-4.605,2.516l-.187,1.752-.285-1.332a7.017,7.017,0,0,0-.6.645c-1.86,2.3-2.618,4.767-1.692,5.517s3.184-.505,5.044-2.8a9.2,9.2,0,0,0,1.355-2.457Z" transform="translate(-594.649 -532.827)" fill="#949496"/>
    <path id="Caminho_14" data-name="Caminho 14" d="M157.017,743.341s243.832-22.6,309.459,0Z" transform="translate(-156.849 -546.722)" fill="#949496"/>
    <path id="Caminho_15" data-name="Caminho 15" d="M876.1,194.34c-.43-33.053-17.4-59.637-38.284-59.637-12.548,0-23.686,9.6-30.67,24.436l8.212,20.467-11.349-12.615a90.528,90.528,0,0,0-4.487,28.632,92.752,92.752,0,0,0,2.895,23.266l22.007-3.524-19.7,10.94c6.416,17.474,18.144,29.408,31.662,30.2l-2.605,70.4,8.062.286-1.723-70.757c19.249-1.821,34.669-26.259,35.9-56.842l-13.3-7.389Z" transform="translate(-566.471 -134.702)" fill="#949496"/>
    <path id="Caminho_16" data-name="Caminho 16" d="M442.83,142.09l10.594,1.863,3.531-17.7-8.534-3.726Z" transform="translate(-287.423 -84.353)" fill="#ca6843"/>
    <path id="Caminho_17" data-name="Caminho 17" d="M483.418,151.11l10.594,1.863,3.531-17.7-8.534-3.726Z" transform="translate(-313.767 -90.563)" fill="#ca6843"/>
    <path id="Caminho_18" data-name="Caminho 18" d="M523.631,556.815v7.36h5.378l-.566-7.077Z" transform="translate(-342.49 -383.352)" fill="#a0616a"/>
    <path id="Caminho_19" data-name="Caminho 19" d="M422.579,556.815v7.36H417.2l.566-7.077Z" transform="translate(-268.284 -383.352)" fill="#a0616a"/>
    <path id="Caminho_20" data-name="Caminho 20" d="M581.663,442.585l-4.3,26.212a156.532,156.532,0,0,0-1.98,20.171l-.8,24.1,5.661-.566,4.246-27.458s11.04-40.763,15-32.554,5.945,34.252,5.945,34.252l1.7,25.477h6.228l.566-33.4s3.4-46.707-5.1-50.67Z" transform="translate(-426.173 -337.343)" fill="#2f2e41"/>
    <path id="Caminho_21" data-name="Caminho 21" d="M677.54,706.624s-6.228-4.246-6.794-.849l-2.265,8.209s-3.4,6.511,3.963,6.511,5.1-4.812,5.1-4.812Z" transform="translate(-490.573 -526.933)" fill="#2f2e41"/>
    <path id="Caminho_22" data-name="Caminho 22" d="M571.161,706.624s6.228-4.246,6.794-.849l2.265,8.209s3.4,6.511-3.963,6.511-5.1-4.812-5.1-4.812Z" transform="translate(-422.647 -526.933)" fill="#2f2e41"/>
    <circle id="Elipse_5" data-name="Elipse 5" cx="8.209" cy="8.209" r="8.209" transform="translate(163.181 37.619)" fill="#a0616a"/>
    <path id="Caminho_23" data-name="Caminho 23" d="M623.081,292.856s.849,7.926-3.4,9.625l7.077,8.492,9.341-6.511s-6.794-1.415-5.661-5.378a29.8,29.8,0,0,0,1.132-4.529Z" transform="translate(-456.978 -243.576)" fill="#a0616a"/>
    <path id="Caminho_24" data-name="Caminho 24" d="M601.423,320.366s5.945,4.529,7.077,4.246,3.4-3.4,3.4-3.4,8.351.142,11.748,2.406-3.255,16.277-3.255,16.277,1.84,6.369-.425,8.068.566,5.945.566,5.945-5.661,10.474-20.664,14.437c0,0-9.341,3.68-9.058,1.7s3.114-24.627,3.114-24.627V321.923Z" transform="translate(-437.085 -262.606)" fill="#575a89"/>
    <path id="Caminho_25" data-name="Caminho 25" d="M604.685,245.556s-4.287,1.429-4.505,7.073a10.008,10.008,0,0,0,.3,2.68c.241,1.023.4,3.224-1.474,6.1a60.406,60.406,0,0,0-3.428,5.9l-.013.027,4.708.589,1-7.8a38.861,38.861,0,0,1,3.086-10.956l.033-.073s2.06,3.825,6.18,3.825l-1.471-1.471s6.474,2.648,8.828,2.648c0,0,1.766,1.177,0,2.943s-5.3,5.885-3.237,9.122.294,4.12.294,4.12l3.237-1.766,1.471-.883V268.8l7.651-.883s2.06-.294-2.354-5.3a5.245,5.245,0,0,1-.656-3.618,8.451,8.451,0,0,0,.321-3.952C623.666,249.536,619.786,238.569,604.685,245.556Z" transform="translate(-440.272 -209.474)" fill="#ca6843"/>
    <path id="Caminho_26" data-name="Caminho 26" d="M365.556,341.7H442.6v42.7h-9.786v11.743L422.27,384.4H365.556Z" transform="translate(-233.031 -235.424)" fill="#a6aa96"/>
    <rect id="Retângulo_21" data-name="Retângulo 21" width="51.777" height="2.313" transform="translate(196.692 121.308) rotate(180)" fill="#fff"/>
    <rect id="Retângulo_22" data-name="Retângulo 22" width="51.777" height="2.313" transform="translate(196.692 128.908) rotate(180)" fill="#fff"/>
    <rect id="Retângulo_23" data-name="Retângulo 23" width="51.777" height="2.313" transform="translate(196.692 136.508) rotate(180)" fill="#fff"/>
    <path id="Caminho_27" data-name="Caminho 27" d="M581.8,396.863l.849,6.228,6.228,17.268s1.415,13.3,4.812,11.606-.566-13.588-.566-13.588l-5.1-16.135.283-5.661Z" transform="translate(-432.591 -315.044)" fill="#a0616a"/>
    <path id="Caminho_28" data-name="Caminho 28" d="M588.049,325.31l-2.553-.833-1.127.549s-3.963.283-4.529,3.114-2.548,20.381-2.548,20.381l10.474.566Z" transform="translate(-429.81 -265.361)" fill="#575a89"/>
    <path id="Caminho_29" data-name="Caminho 29" d="M673.211,396.863l-.849,6.228-6.228,17.268s-1.415,13.3-4.812,11.606.566-13.588.566-13.588l5.1-16.135-.283-5.661Z" transform="translate(-483.321 -315.044)" fill="#a0616a"/>
    <path id="Caminho_30" data-name="Caminho 30" d="M672.447,325.826l1.361-.444a3.1,3.1,0,0,1,2.318.161h0s3.963.283,4.529,3.114,2.548,20.381,2.548,20.381l-10.474.566Z" transform="translate(-491.616 -265.878)" fill="#575a89"/>
    <path id="Caminho_31" data-name="Caminho 31" d="M104.48,17.333H0V75.244H13.271V91.169l14.3-15.925H104.48Z" transform="translate(0 -11.893)" fill="#a6aa96"/>
    <rect id="Retângulo_24" data-name="Retângulo 24" width="70.216" height="3.137" transform="translate(17.132 22.452)" fill="#fff"/>
    <rect id="Retângulo_25" data-name="Retângulo 25" width="70.216" height="3.137" transform="translate(17.132 32.827)" fill="#fff"/>
    <rect id="Retângulo_26" data-name="Retângulo 26" width="70.216" height="3.137" transform="translate(17.132 42.916)" fill="#fff"/>
    <circle id="Elipse_6" data-name="Elipse 6" cx="2.825" cy="2.825" r="2.825" transform="translate(8.485 80.561)" fill="#949496"/>
  </g>
</svg>
