<svg xmlns="http://www.w3.org/2000/svg" width="40" height="40" viewBox="0 0 40 40">
  <path id="redes-twitter" d="M35.888,58.051c.025.437.025.875.025,1.313,0,13.344-8.249,28.719-23.325,28.719A20.143,20.143,0,0,1,0,83.551a13.809,13.809,0,0,0,1.98.125,14.59,14.59,0,0,0,10.178-4.312c-3.6-.094-6.624-3-7.665-7a8.446,8.446,0,0,0,1.548.156A7.146,7.146,0,0,0,8.2,72.176c-3.756-.938-6.574-5-6.574-9.906v-.125A7.131,7.131,0,0,0,5.33,63.426a10.859,10.859,0,0,1-3.655-8.406,11.838,11.838,0,0,1,1.117-5.094c4.036,6.125,10.1,10.125,16.9,10.563a13.934,13.934,0,0,1-.2-2.312c0-5.563,3.655-10.094,8.2-10.094a7.56,7.56,0,0,1,5.99,3.188,14.449,14.449,0,0,0,5.2-2.437,9.964,9.964,0,0,1-3.6,5.562A14.083,14.083,0,0,0,40,52.832a20.371,20.371,0,0,1-4.112,5.219Z" transform="translate(0 -48.082)" fill="#ffd5c6"/>
</svg>
